<?xml version="1.0" encoding="UTF-8"?>
<svg id="Layer_2" data-name="Layer 2" xmlns="http://www.w3.org/2000/svg" viewBox="0 0 285.25 119.67">
  <defs>
    <style>
      .cls-1 {
        fill: #fff;
      }
    </style>
  </defs>
  <g id="Layer_1-2" data-name="Layer 1">
    <g>
      <polygon class="cls-1" points="151.71 106.69 137.11 106.73 119.54 41.29 119.43 106.72 106.68 106.71 106.68 16.56 124.5 16.53 138.96 70.67 139.07 16.55 151.71 16.55 151.71 106.69"/>
      <path class="cls-1" d="M100.2,52.51c-.47,8.38-3.28,15.43-11.29,18.71-2.61.94-5.3,1.58-8.13,1.59l-8.41.04v33.86s-14.21,0-14.21,0V16.55s22.82,0,22.82,0c3.09.21,5.87.74,8.65,1.93,7.53,3.46,10.13,10.4,10.56,18.46v15.57ZM85.97,52.27v-14.8c.02-1.41-.27-2.79-.61-4.13-.8-2.23-2.65-3.79-5.1-3.81l-7.88-.09v30.51s7.4-.05,7.4-.05c1.84-.01,3.48-.71,4.66-2.06,1.01-1.64,1.53-3.49,1.53-5.58Z"/>
      <polygon class="cls-1" points="52.09 93.82 52.13 106.72 14.52 106.71 14.52 16.55 28.73 16.55 28.72 93.82 52.09 93.82"/>
      <polygon class="cls-1" points="146.85 114.7 161.31 114.66 161.31 5 146.87 4.98 146.84 0 166.29 0 166.29 119.66 146.85 119.66 146.85 114.7"/>
      <polygon class="cls-1" points="4.92 114.64 19.37 114.7 19.37 119.67 0 119.66 0 0 19.36 0 19.38 4.97 4.92 5 4.92 114.64"/>
      <polygon class="cls-1" points="223.58 86.37 226.57 86.34 224.2 107.67 219.69 107.67 218.55 97.06 217.3 107.67 212.64 107.66 210.26 86.35 213.58 86.31 215.39 102.05 216.93 86.38 220.23 86.31 221.91 102.68 223.58 86.37"/>
      <polygon class="cls-1" points="186.67 107.68 183.18 107.66 179.15 92.92 178.99 107.67 175.99 107.66 175.99 86.34 180.21 86.31 183.61 98.85 183.68 86.34 186.67 86.32 186.67 107.68"/>
      <polygon class="cls-1" points="285.25 72.43 281.75 72.41 277.73 57.67 277.57 72.42 274.57 72.41 274.57 51.09 278.79 51.06 282.19 63.6 282.26 51.09 285.25 51.07 285.25 72.43"/>
      <path class="cls-1" d="M206.71,25.8c1.3.63,2.3,1.81,2.32,3.28l.05,4.25c-.32,2.07-1.86,3.79-4.08,3.81l-6.22.05V15.82s6.2.06,6.2.06c2.02.02,3.41,1.54,3.79,3.39l-.03,3.89c-.01,1.22-1.07,2.16-2.03,2.63ZM204.98,23.85c.84-1.36.72-3.31-.05-4.58-.69-.44-1.91-.43-2.8-.36v5.56c.85.09,2.33.21,2.84-.62ZM205.41,33.67c.49-2.04.56-3.81-.18-5.61-.8-.49-2.07-.55-3.08-.47v6.49c1.07.09,2.33.06,3.27-.41Z"/>
      <path class="cls-1" d="M197.96,72.42h-3.62s-.13-5.29-.13-5.29c-.02-.94.04-2.2-.69-2.89-.59-.57-1.8-.54-2.65-.47v8.66s-3.36-.01-3.36-.01v-21.34s6.2.05,6.2.05c2.05.02,3.45,1.51,3.8,3.4v4.41c-.01,1.37-1.02,2.47-2.07,3.06,1.26.62,2.07,1.84,2.09,3.26l.08,5.03.35,2.13ZM193.49,54.46c-.69-.42-1.78-.35-2.63-.3v6.48c.88.05,2.22.11,2.77-.53.85-1,.8-5.1-.14-5.66Z"/>
      <path class="cls-1" d="M250.73,107.67h-3.62s-.13-5.29-.13-5.29c-.02-.94.04-2.2-.69-2.89-.59-.57-1.8-.54-2.65-.47v8.66s-3.36-.01-3.36-.01v-21.34s6.2.05,6.2.05c2.05.02,3.45,1.51,3.8,3.4v4.41c-.01,1.37-1.02,2.47-2.07,3.06,1.26.62,2.07,1.84,2.09,3.26l.08,5.03.35,2.13ZM246.26,89.71c-.69-.42-1.78-.35-2.63-.3v6.48c.88.05,2.22.11,2.77-.53.85-1,.8-5.1-.14-5.66Z"/>
      <path class="cls-1" d="M245.93,37.17h-3.62s-.13-5.29-.13-5.29c-.02-.94.04-2.2-.69-2.89-.59-.57-1.8-.54-2.65-.47v8.66s-3.36-.01-3.36-.01V15.82s6.2.05,6.2.05c2.05.02,3.45,1.51,3.8,3.4v4.41c-.01,1.37-1.02,2.47-2.07,3.06,1.26.62,2.07,1.84,2.09,3.26l.08,5.03.35,2.13ZM241.46,19.21c-.69-.42-1.78-.35-2.63-.3v6.48c.88.05,2.22.11,2.77-.53.85-1,.8-5.1-.14-5.66Z"/>
      <path class="cls-1" d="M220.8,32.95c0,2.94-2.4,4.51-4.99,4.51s-4.98-1.59-4.98-4.42v-13.1c0-2.83,2.4-4.42,4.98-4.42s4.98,1.59,4.98,4.42v13ZM217.49,32.47v-12.05c0-1.12-.85-1.81-1.8-1.76-.78.04-1.55.74-1.55,1.76v12.17c0,1.12.85,1.81,1.79,1.76.8-.05,1.56-.72,1.56-1.87Z"/>
      <path class="cls-1" d="M209.53,68.2c0,2.94-2.4,4.51-4.99,4.51s-4.98-1.59-4.98-4.42v-13.1c0-2.83,2.4-4.42,4.98-4.42s4.98,1.59,4.98,4.42v13ZM206.21,67.72v-12.05c0-1.12-.85-1.81-1.8-1.76-.78.04-1.55.74-1.55,1.76v12.17c0,1.12.85,1.81,1.79,1.76.8-.05,1.56-.72,1.56-1.87Z"/>
      <path class="cls-1" d="M272.13,68.2c0,2.94-2.4,4.51-4.99,4.51s-4.98-1.59-4.98-4.42v-13.1c0-2.83,2.4-4.42,4.98-4.42s4.98,1.59,4.98,4.42v13ZM268.81,67.72v-12.05c0-1.12-.85-1.81-1.8-1.76-.78.04-1.55.74-1.55,1.76v12.17c0,1.12.85,1.81,1.79,1.76.8-.05,1.56-.72,1.56-1.87Z"/>
      <path class="cls-1" d="M238.07,103.45c0,2.94-2.4,4.51-4.99,4.51s-4.98-1.59-4.98-4.42v-13.1c0-2.83,2.4-4.42,4.98-4.42s4.98,1.59,4.98,4.42v13ZM234.76,102.97v-12.05c0-1.12-.85-1.81-1.8-1.76-.78.04-1.55.74-1.55,1.76v12.17c0,1.12.85,1.81,1.79,1.76.8-.05,1.56-.72,1.56-1.87Z"/>
      <path class="cls-1" d="M263.86,107.61l-3.49.08-3.19-8.25c-.47.58-1.07,1.45-1.07,1.95l-.02,6.29-3.35-.02v-21.32s3.34-.01,3.34-.01l.07,9.05,4.3-9.04h3.43s-4.64,9.5-4.64,9.5l4.62,11.77Z"/>
      <path class="cls-1" d="M193.12,33.38l-4.06-.08-.59,3.87-3.15-.02,3.41-21.32h4.99s3.41,21.32,3.41,21.32l-3.46.03-.55-3.8ZM192.64,30.41l-1.62-10.35-1.55,10.42,3.17-.07Z"/>
      <path class="cls-1" d="M229.96,15.86l3.18-.02-.04,17.22c0,2.91-2.42,4.43-5.06,4.41s-4.98-1.53-4.99-4.42l-.05-17.21h3.36s0,16.52,0,16.52c0,1.24.72,1.99,1.79,1.99s1.78-.76,1.8-1.98V15.86Z"/>
      <path class="cls-1" d="M182.26,64.36l-2.91.12v7.94s-3.36,0-3.36,0v-21.34s5.98.05,5.98.05c2.24.02,3.7,1.76,4.06,3.85l-.06,5.64c-.02,1.95-1.7,3.66-3.71,3.75ZM182.69,59.93l-.02-4.5c0-.44-.73-1.23-1.19-1.24l-2.14-.06v7.28s2.33-.12,2.33-.12c.41-.02,1.02-.94,1.01-1.36Z"/>
      <path class="cls-1" d="M237.15,67.49c0,1.27.63,2.02,1.57,2.09,1.11.09,1.93-.6,1.94-1.82l.04-3.32h3.18s-.09,4.07-.09,4.07c-.06,2.8-2.38,4.19-4.97,4.2s-4.99-1.53-4.98-4.42l.03-13.3c0-2.8,2.47-4.22,4.94-4.21s4.65,1.29,4.96,3.99l.11,3.55h-3.17s-.05-2.59-.05-2.59c-.02-1.12-.71-1.81-1.71-1.83-.9-.02-1.78.62-1.78,1.76l-.02,11.83Z"/>
      <polygon class="cls-1" points="230.75 63.07 226.12 63.07 226.12 69.36 231.92 69.36 231.93 72.42 222.76 72.42 222.76 51.08 231.93 51.08 231.94 54.13 226.12 54.15 226.12 60.01 230.72 60.01 230.75 63.07"/>
      <polygon class="cls-1" points="196.93 98.32 192.3 98.32 192.3 104.61 198.1 104.61 198.11 107.67 188.95 107.67 188.95 86.33 198.11 86.33 198.12 89.38 192.3 89.4 192.3 95.26 196.9 95.26 196.93 98.32"/>
      <polygon class="cls-1" points="206.22 107.64 202.86 107.67 202.86 89.4 199.31 89.39 199.32 86.33 209.76 86.33 209.76 89.39 206.21 89.4 206.22 107.64"/>
      <polygon class="cls-1" points="251.79 72.39 248.43 72.42 248.43 54.15 244.89 54.14 244.89 51.08 255.33 51.08 255.33 54.14 251.79 54.15 251.79 72.39"/>
      <polygon class="cls-1" points="217.73 72.39 214.37 72.42 214.37 54.15 210.83 54.14 210.83 51.08 221.27 51.08 221.27 54.14 217.73 54.15 217.73 72.39"/>
      <polygon class="cls-1" points="184.9 34.11 184.92 37.17 175.99 37.17 175.99 15.84 179.35 15.84 179.35 34.11 184.9 34.11"/>
      <rect class="cls-1" x="256.58" y="51.08" width="3.36" height="21.34"/>
    </g>
  </g>
</svg>